<mxfile host="app.diagrams.net" modified="2022-01-22T18:35:59.535Z" agent="5.0 (X11; Linux x86_64) AppleWebKit/537.36 (KHTML, like Gecko) Chrome/97.0.4692.99 Safari/537.36" etag="F6xd80lNB7mxKlxV9irn" version="16.4.3" type="github">
  <diagram id="8jfyE90RRNObh0BSDH4P" name="Page-1">
    <mxGraphModel dx="1635" dy="905" grid="1" gridSize="10" guides="1" tooltips="1" connect="1" arrows="1" fold="1" page="1" pageScale="1" pageWidth="827" pageHeight="1169" math="0" shadow="0">
      <root>
        <mxCell id="0" />
        <mxCell id="1" parent="0" />
        <mxCell id="e08RUBoJ7VVwQUKtB3GE-66" value="Form Builder System" style="rounded=0;whiteSpace=wrap;html=1;fillColor=none;labelPosition=center;verticalLabelPosition=top;align=center;verticalAlign=bottom;" vertex="1" parent="1">
          <mxGeometry x="50" y="140" width="250" height="480" as="geometry" />
        </mxCell>
        <mxCell id="e08RUBoJ7VVwQUKtB3GE-75" style="edgeStyle=orthogonalEdgeStyle;rounded=0;orthogonalLoop=1;jettySize=auto;html=1;" edge="1" parent="1" source="e08RUBoJ7VVwQUKtB3GE-67" target="e08RUBoJ7VVwQUKtB3GE-41">
          <mxGeometry relative="1" as="geometry">
            <Array as="points">
              <mxPoint x="620" y="380" />
              <mxPoint x="620" y="237" />
            </Array>
          </mxGeometry>
        </mxCell>
        <mxCell id="e08RUBoJ7VVwQUKtB3GE-77" style="edgeStyle=orthogonalEdgeStyle;rounded=0;orthogonalLoop=1;jettySize=auto;html=1;" edge="1" parent="1" source="e08RUBoJ7VVwQUKtB3GE-67" target="e08RUBoJ7VVwQUKtB3GE-6">
          <mxGeometry relative="1" as="geometry" />
        </mxCell>
        <mxCell id="e08RUBoJ7VVwQUKtB3GE-78" style="edgeStyle=orthogonalEdgeStyle;rounded=0;orthogonalLoop=1;jettySize=auto;html=1;entryX=0.005;entryY=0.63;entryDx=0;entryDy=0;entryPerimeter=0;" edge="1" parent="1" source="e08RUBoJ7VVwQUKtB3GE-67" target="e08RUBoJ7VVwQUKtB3GE-7">
          <mxGeometry relative="1" as="geometry">
            <Array as="points">
              <mxPoint x="620" y="380" />
              <mxPoint x="620" y="525" />
            </Array>
          </mxGeometry>
        </mxCell>
        <mxCell id="e08RUBoJ7VVwQUKtB3GE-67" value="Workflow Builder System" style="rounded=0;whiteSpace=wrap;html=1;fillColor=none;labelPosition=center;verticalLabelPosition=top;align=center;verticalAlign=bottom;" vertex="1" parent="1">
          <mxGeometry x="346" y="140" width="250" height="480" as="geometry" />
        </mxCell>
        <mxCell id="e08RUBoJ7VVwQUKtB3GE-68" value="Services / Providers" style="rounded=0;whiteSpace=wrap;html=1;fillColor=none;labelPosition=center;verticalLabelPosition=top;align=center;verticalAlign=bottom;" vertex="1" parent="1">
          <mxGeometry x="642" y="140" width="297" height="480" as="geometry" />
        </mxCell>
        <mxCell id="e08RUBoJ7VVwQUKtB3GE-59" style="edgeStyle=orthogonalEdgeStyle;rounded=0;orthogonalLoop=1;jettySize=auto;html=1;entryX=0.5;entryY=1;entryDx=0;entryDy=0;entryPerimeter=0;" edge="1" parent="1" source="e08RUBoJ7VVwQUKtB3GE-1" target="e08RUBoJ7VVwQUKtB3GE-4">
          <mxGeometry relative="1" as="geometry" />
        </mxCell>
        <mxCell id="e08RUBoJ7VVwQUKtB3GE-1" value="Form Builder" style="sketch=0;pointerEvents=1;shadow=0;dashed=0;html=1;strokeColor=none;fillColor=#505050;labelPosition=center;verticalLabelPosition=bottom;verticalAlign=top;outlineConnect=0;align=center;shape=mxgraph.office.concepts.form;" vertex="1" parent="1">
          <mxGeometry x="130" y="309" width="86" height="79" as="geometry" />
        </mxCell>
        <mxCell id="e08RUBoJ7VVwQUKtB3GE-60" style="edgeStyle=orthogonalEdgeStyle;rounded=0;orthogonalLoop=1;jettySize=auto;html=1;entryX=0.5;entryY=1;entryDx=0;entryDy=0;entryPerimeter=0;" edge="1" parent="1" source="e08RUBoJ7VVwQUKtB3GE-2" target="e08RUBoJ7VVwQUKtB3GE-5">
          <mxGeometry relative="1" as="geometry" />
        </mxCell>
        <mxCell id="e08RUBoJ7VVwQUKtB3GE-2" value="Workflow Builder" style="verticalLabelPosition=bottom;html=1;verticalAlign=top;strokeWidth=1;align=center;outlineConnect=0;dashed=0;outlineConnect=0;shape=mxgraph.aws3d.workflowService;fillColor=#ECECEC;strokeColor=#5E5E5E;aspect=fixed;" vertex="1" parent="1">
          <mxGeometry x="420.28" y="320" width="85.94" height="70" as="geometry" />
        </mxCell>
        <mxCell id="e08RUBoJ7VVwQUKtB3GE-4" value="Form Builder&lt;br&gt;DB" style="shape=cylinder3;whiteSpace=wrap;html=1;boundedLbl=1;backgroundOutline=1;size=15;" vertex="1" parent="1">
          <mxGeometry x="143" y="160" width="60" height="80" as="geometry" />
        </mxCell>
        <mxCell id="e08RUBoJ7VVwQUKtB3GE-5" value="Workflow Builder DB" style="shape=cylinder3;whiteSpace=wrap;html=1;boundedLbl=1;backgroundOutline=1;size=15;" vertex="1" parent="1">
          <mxGeometry x="433.25" y="160" width="60" height="80" as="geometry" />
        </mxCell>
        <mxCell id="e08RUBoJ7VVwQUKtB3GE-6" value="Google Sheets" style="shape=image;html=1;verticalAlign=top;verticalLabelPosition=bottom;labelBackgroundColor=#ffffff;imageAspect=0;aspect=fixed;image=https://cdn3.iconfinder.com/data/icons/cad-database-presentation-spreadsheet-vector-fil-2/512/22-128.png" vertex="1" parent="1">
          <mxGeometry x="680.04" y="342" width="75" height="75" as="geometry" />
        </mxCell>
        <mxCell id="e08RUBoJ7VVwQUKtB3GE-69" style="edgeStyle=orthogonalEdgeStyle;rounded=0;orthogonalLoop=1;jettySize=auto;html=1;entryX=0;entryY=0.5;entryDx=0;entryDy=0;entryPerimeter=0;" edge="1" parent="1" source="e08RUBoJ7VVwQUKtB3GE-7" target="e08RUBoJ7VVwQUKtB3GE-42">
          <mxGeometry relative="1" as="geometry" />
        </mxCell>
        <mxCell id="e08RUBoJ7VVwQUKtB3GE-7" value="Nognio" style="sketch=0;html=1;dashed=0;whitespace=wrap;fillColor=#2875E2;strokeColor=#ffffff;points=[[0.005,0.63,0],[0.1,0.2,0],[0.9,0.2,0],[0.5,0,0],[0.995,0.63,0],[0.72,0.99,0],[0.5,1,0],[0.28,0.99,0]];shape=mxgraph.kubernetes.icon;prIcon=api;labelPosition=center;verticalLabelPosition=bottom;align=center;verticalAlign=top;spacing=0;" vertex="1" parent="1">
          <mxGeometry x="681" y="471.75" width="75" height="84.5" as="geometry" />
        </mxCell>
        <mxCell id="e08RUBoJ7VVwQUKtB3GE-41" value="Email Service" style="verticalLabelPosition=bottom;html=1;verticalAlign=top;strokeWidth=1;align=center;outlineConnect=0;dashed=0;outlineConnect=0;shape=mxgraph.aws3d.email_service;fillColor=#ECECEC;strokeColor=#5E5E5E;aspect=fixed;" vertex="1" parent="1">
          <mxGeometry x="687.04" y="198" width="61.35" height="78" as="geometry" />
        </mxCell>
        <mxCell id="e08RUBoJ7VVwQUKtB3GE-42" value="Nognio&lt;br&gt;DB" style="shape=cylinder3;whiteSpace=wrap;html=1;boundedLbl=1;backgroundOutline=1;size=15;" vertex="1" parent="1">
          <mxGeometry x="814" y="475" width="60" height="80" as="geometry" />
        </mxCell>
        <mxCell id="e08RUBoJ7VVwQUKtB3GE-74" style="edgeStyle=orthogonalEdgeStyle;rounded=0;orthogonalLoop=1;jettySize=auto;html=1;" edge="1" parent="1" source="e08RUBoJ7VVwQUKtB3GE-66" target="e08RUBoJ7VVwQUKtB3GE-57">
          <mxGeometry relative="1" as="geometry">
            <Array as="points">
              <mxPoint x="320" y="349" />
              <mxPoint x="320" y="470" />
            </Array>
          </mxGeometry>
        </mxCell>
        <mxCell id="e08RUBoJ7VVwQUKtB3GE-43" value="Form" style="shape=note;size=20;whiteSpace=wrap;html=1;" vertex="1" parent="1">
          <mxGeometry x="147" y="440" width="44" height="60" as="geometry" />
        </mxCell>
        <mxCell id="e08RUBoJ7VVwQUKtB3GE-45" value="Form" style="shape=note;size=20;whiteSpace=wrap;html=1;" vertex="1" parent="1">
          <mxGeometry x="147" y="525" width="44" height="60" as="geometry" />
        </mxCell>
        <mxCell id="e08RUBoJ7VVwQUKtB3GE-57" value="Workflow" style="shape=image;html=1;verticalAlign=top;verticalLabelPosition=bottom;labelBackgroundColor=#ffffff;imageAspect=0;aspect=fixed;image=https://cdn0.iconfinder.com/data/icons/maternity-and-pregnancy-2/512/125_flowchart_Algorithm_business_data_architecture_scheme_structure_workflow-128.png" vertex="1" parent="1">
          <mxGeometry x="428.25" y="435" width="70" height="70" as="geometry" />
        </mxCell>
        <mxCell id="e08RUBoJ7VVwQUKtB3GE-58" value="Workflow" style="shape=image;html=1;verticalAlign=top;verticalLabelPosition=bottom;labelBackgroundColor=#ffffff;imageAspect=0;aspect=fixed;image=https://cdn0.iconfinder.com/data/icons/maternity-and-pregnancy-2/512/125_flowchart_Algorithm_business_data_architecture_scheme_structure_workflow-128.png" vertex="1" parent="1">
          <mxGeometry x="428.25" y="520" width="70" height="70" as="geometry" />
        </mxCell>
      </root>
    </mxGraphModel>
  </diagram>
</mxfile>
